<svg width="68px" height="77px" viewBox="0 0 92 96" fill="none" xmlns="http://www.w3.org/2000/svg">
<path d="M59.5494 50.3263L55.9488 49.0079L47.208 53.4029L54.5985 60.9479H57.8528L59.5494 50.3263Z" fill="#ec1d24"/>
<path d="M2.89474 49.0079L0 50.7199L1.69682 60.9479H4.95113L3.38636 49.0079H2.89474Z" fill="#ec1d24"/>
<path d="M35.9387 49.3141L46.1634 77.6055L46.1894 77.6157V77.6055L52.9361 72.0525L54.5986 60.9479L55.9489 49.0079L35.9387 49.3141Z" fill="#ec1d24"/>
<path d="M2.92578 49.2347L4.14727 58.2481L6.61364 72.0525L12.5942 77.6055L27.1992 52.6487L2.92578 49.2347Z" fill="#ec1d24"/>
<path d="M46.9774 49.0463L11.7842 49.1969L12.5942 77.6055L12.571 78.7537L16.0169 82.5889H42.7431L46.1893 79.3799V77.6157L46.1632 77.6055L46.9774 49.0463Z" fill="#ec1d24"/>
<path d="M19.5918 15.2771C12.6071 17.5149 4.30237 22.9279 2.46313 35.9829C2.46313 35.9629 2.4823 35.9629 2.50147 35.9429C2.84647 35.6029 5.95147 32.8829 13.8098 32.7229C20.0148 32.5749 22.04 35.5185 22.675 37.0559L24.5174 34.4551C24.5174 34.4551 29.3881 27.6835 28.3615 22.3435C27.6799 18.7985 21.7967 16.3305 19.5918 15.2771Z" fill="#ec1d24"/>
<path d="M39.7695 15.6129L40.1298 15.3565C37.2188 14.3933 33.8221 13.7917 29.8331 13.7229C29.8331 13.7229 25.1266 13.5039 19.5918 15.2771C25.1179 17.9175 24.5174 34.4551 24.5174 34.4551L22.6749 37.0559C22.8971 37.5939 22.9523 37.9629 22.9523 37.9629L35.9473 37.7829C35.9473 37.7829 35.893 37.2381 35.9435 36.4419L34.7024 34.4551C34.7024 34.4551 39.9391 30.1473 40.7943 25.1695C41.456 21.3187 37.3236 16.7137 39.7695 15.6129Z" fill="#ec1d24"/>
<path d="M40.1298 15.3565L39.7695 15.6129C37.5463 16.6133 36.2896 19.7817 35.5823 23.2419C34.5053 28.5101 34.7024 34.4551 34.7024 34.4551L35.9434 36.4419C36.0923 34.1017 37.157 29.5711 43.2497 30.1829C51.1847 31.0029 56.8389 38.7229 57.1839 39.2029C57.2031 39.2229 57.2031 39.2229 57.2031 39.2229C57.2031 39.2229 57.2031 39.2229 57.2031 39.2029V39.1829C57.1868 38.2135 56.6609 20.8265 40.1298 15.3565Z" fill="#ec1d24"/>
<path d="M57.2988 40.1629L57.0496 41.8629L54.8773 58.4825C51.8298 60.0423 49.6321 62.6629 48.4055 65.4029C46.2205 70.3029 45.3771 76.0229 45.3771 76.0229L42.3296 77.4429L37.0205 77.2629L34.1455 75.3629L22.9521 74.9429L20.6713 76.9629L16.5505 77.4029L13.618 74.3429C13.4263 70.2829 11.5863 67.6229 10.7238 65.2429C9.11379 60.8629 7.06295 59.1029 7.06295 59.1029L4.14962 58.2429L1.94546 42.0029L1.69629 40.1629C1.69629 40.1629 1.69629 39.8229 1.75379 39.2629C1.83046 38.5029 2.00296 37.3229 2.46296 35.9829C2.46296 35.9629 2.48212 35.9629 2.50129 35.9429C3.45962 33.0829 5.66379 29.5229 10.628 27.8029C19.6555 24.6629 23.0671 29.6829 24.5238 34.4629H34.7013C39.9721 17.5829 55.8038 30.8029 57.2029 39.1829V39.2029C57.2029 39.2229 57.2029 39.2229 57.2029 39.2229C57.2604 39.5429 57.2988 39.8629 57.2988 40.1629Z" fill="#FFDD4D"/>
<path d="M9.28809 47.8191C9.28809 47.8191 18.4576 49.4867 22.9579 49.3141L20.5391 52.6487C20.5391 52.6487 14.6885 52.4761 9.85063 51.4413L9.28809 47.8191Z" fill="white"/>
<path d="M49.6084 47.8191C49.6084 47.8191 40.4391 49.4867 35.9387 49.3141L38.3576 52.6487C38.3576 52.6487 44.2082 52.4761 49.0458 51.4413L49.6084 47.8191Z" fill="white"/>
<path d="M57.2029 39.2229C57.2029 39.2229 57.2029 39.2229 57.2029 39.2029H57.1838L51.9896 46.3029L49.4404 47.0829C49.0188 47.1629 40.2596 48.7229 35.9663 48.5629C35.9471 48.5629 35.9471 48.5829 35.9279 48.5829L22.9521 48.5629C22.933 48.5629 22.933 48.5629 22.933 48.5629C18.6396 48.7229 9.88045 47.1629 9.45879 47.0829L6.90962 46.3029L1.75379 39.2629C1.69629 39.8229 1.69629 40.1629 1.69629 40.1629L1.94546 42.0029L5.91296 47.4029C5.98962 47.5429 6.12379 47.6229 6.27712 47.6829L8.65379 48.4029L9.13295 51.5629C9.19045 51.8629 9.42045 52.1029 9.70795 52.1829C14.5571 53.2029 20.2688 53.3829 20.518 53.4029H20.5371C20.7671 53.4029 20.978 53.2829 21.1121 53.1029L23.3163 50.0629L35.583 50.0829L37.7871 53.1029C37.9213 53.2829 38.1321 53.4029 38.3621 53.4029C38.3621 53.4029 38.3621 53.4029 38.3813 53.4029C38.6113 53.3829 44.3421 53.2029 49.1913 52.1829C49.4788 52.1029 49.7088 51.8629 49.7471 51.5629L50.2454 48.4029L52.6221 47.6829C52.7754 47.6229 52.8904 47.5429 52.9863 47.4029L57.0496 41.8629L57.2988 40.1629C57.2988 39.8629 57.2604 39.5429 57.2029 39.2229ZM20.1921 51.8829C18.8888 51.8229 14.4038 51.5829 10.4746 50.8029L10.1488 48.7229C12.3721 49.1029 17.7388 49.9629 21.5146 50.0629L20.1921 51.8829ZM48.4246 50.8029C44.4954 51.5829 40.0105 51.8229 38.7071 51.8829L37.3846 50.0629C41.1604 49.9629 46.5271 49.1029 48.7313 48.7229L48.4246 50.8029Z" fill="#ec1d24"/>
<path d="M10.718 65.2553C10.718 65.2553 12.3253 69.8585 12.5074 74.8123L16.1232 78.5875V73.5795C16.1232 73.5795 12.9829 68.2315 10.718 65.2553Z" fill="#EFBC3F"/>
<path d="M38.8511 70.3049H20.1521L16.1233 73.5795V78.5875V78.5877H20.6533L23.2061 76.2717L33.4003 76.2725L35.9388 78.9069H42.3326L42.4069 73.2795L38.8511 70.3049Z" fill="#FFD24A"/>
<path d="M42.4069 73.2795L42.3325 78.9069L46.3096 76.0615C46.3096 76.0615 47.1301 69.7303 48.4101 65.3945L42.4069 73.2795Z" fill="#EFBC3F"/>
</svg>
